<svg xmlns="http://www.w3.org/2000/svg" viewBox="0 0 1200 1000"><defs>
  <linearGradient id="sky" x2="0" y2="1"><stop stop-color="#cbdad2"/><stop offset="1" stop-color="#f0e9d7"/></linearGradient>
  <linearGradient id="wall" x2="1" y2=".4"><stop stop-color="#ece9d8"/><stop offset="1" stop-color="#bfcbbd"/></linearGradient>
  <linearGradient id="side" x2="1" y2=".4"><stop stop-color="#91a79a"/><stop offset="1" stop-color="#c3cbb9"/></linearGradient>
  <linearGradient id="water" x2=".3" y2="1"><stop stop-color="#508b7b"/><stop offset=".5" stop-color="#8eb5a0"/><stop offset="1" stop-color="#bad0b6"/></linearGradient>
  <linearGradient id="dark" x2="1" y2="0"><stop stop-color="#172e29"/><stop offset="1" stop-color="#597c69"/></linearGradient>
  <linearGradient id="light" x2="0" y2="1"><stop stop-color="#fffae3" stop-opacity=".85"/><stop offset="1" stop-color="#fffae3" stop-opacity="0"/></linearGradient>
  <radialGradient id="glow"><stop stop-color="#fffce7" stop-opacity=".75"/><stop offset="1" stop-color="#fffce7" stop-opacity="0"/></radialGradient>
  <pattern id="tiles" width="34" height="34" patternUnits="userSpaceOnUse"><path d="M34 0H0V34" fill="none" stroke="#516f60" stroke-opacity=".18" stroke-width="1"/></pattern>
  <pattern id="smalltiles" width="19" height="19" patternUnits="userSpaceOnUse"><path d="M19 0H0V19" fill="none" stroke="#e3ead6" stroke-opacity=".3" stroke-width=".8"/></pattern>
  <filter id="grain"><feTurbulence type="fractalNoise" baseFrequency=".7" numOctaves="3" stitchTiles="stitch"/><feColorMatrix type="saturate" values="0"/><feComponentTransfer><feFuncA type="linear" slope=".11"/></feComponentTransfer><feBlend in="SourceGraphic" mode="soft-light"/></filter>
  <filter id="blur"><feGaussianBlur stdDeviation="22"/></filter>
  <clipPath id="pool"><path d="M385 583H1160L1105 1020H-160Z"/></clipPath>
</defs><g filter="url(#grain)"><path fill="url(#sky)" d="M0 0h1200v1000H0z"/><path d="M0 720H1200V1000H0Z" fill="#b7c6ad"/><path d="M0 720H1200V1000H0Z" fill="url(#tiles)"/><circle cx="928" cy="219" r="76" fill="#f2edda"/><path d="M305 809V177L737 217V782Z" fill="#eaead5"/><path d="M737 217l93-69v601l-93 33Z" fill="#8fa38a"/><path d="M305 177l90-63l435 34l-93 69Z" fill="#f4efdd"/><path d="M305 177l432 40v565l-432 27Z" fill="url(#tiles)"/><path d="M407 808V412.5a104.5 104.5 0 0 1 209 0V808Z" fill="url(#dark)"/><path d="M563.75 808V420.86Q553.3 320 494.78 316" stroke="#9aaa90" stroke-width="6" fill="none" opacity=".5"/><path d="M455 805V411q52-79 107 0v388" fill="#b4c9ae"/><path d="M481 801V460q28-49 54 0v339" fill="#557b63"/><path d="M496 800V490q13-24 24 0v310" fill="#e5e8cc"/><path d="M616 807L943 1000H349L407 807Z" fill="#365b48" opacity=".27"/><path d="M505 799L615 1000H551L498 799Z" fill="#f7f0cf" opacity=".45"/><path d="M206 924h361v23h-361Z" fill="#a7b5a0" stroke="#8fa18e" stroke-width=".6"/><path d="M206 924l20 -11.5h361l-20 11.5Z" fill="#eeeeda" stroke="#bac3ad" stroke-width=".6"/><path d="M226 901h361v23h-361Z" fill="#a7b5a0" stroke="#8fa18e" stroke-width=".6"/><path d="M226 901l20 -11.5h361l-20 11.5Z" fill="#eeeeda" stroke="#bac3ad" stroke-width=".6"/><path d="M246 878h361v23h-361Z" fill="#a7b5a0" stroke="#8fa18e" stroke-width=".6"/><path d="M246 878l20 -11.5h361l-20 11.5Z" fill="#eeeeda" stroke="#bac3ad" stroke-width=".6"/><path d="M266 855h361v23h-361Z" fill="#a7b5a0" stroke="#8fa18e" stroke-width=".6"/><path d="M266 855l20 -11.5h361l-20 11.5Z" fill="#eeeeda" stroke="#bac3ad" stroke-width=".6"/><path d="M286 832h361v23h-361Z" fill="#a7b5a0" stroke="#8fa18e" stroke-width=".6"/><path d="M286 832l20 -11.5h361l-20 11.5Z" fill="#eeeeda" stroke="#bac3ad" stroke-width=".6"/><ellipse cx="168" cy="687" rx="178" ry="390" fill="url(#glow)"/></g></svg>