<svg xmlns="http://www.w3.org/2000/svg" viewBox="0 0 1200 1000"><defs>
  <linearGradient id="sky" x2="0" y2="1"><stop stop-color="#cbdad2"/><stop offset="1" stop-color="#f0e9d7"/></linearGradient>
  <linearGradient id="wall" x2="1" y2=".4"><stop stop-color="#ece9d8"/><stop offset="1" stop-color="#bfcbbd"/></linearGradient>
  <linearGradient id="side" x2="1" y2=".4"><stop stop-color="#91a79a"/><stop offset="1" stop-color="#c3cbb9"/></linearGradient>
  <linearGradient id="water" x2=".3" y2="1"><stop stop-color="#508b7b"/><stop offset=".5" stop-color="#8eb5a0"/><stop offset="1" stop-color="#bad0b6"/></linearGradient>
  <linearGradient id="dark" x2="1" y2="0"><stop stop-color="#172e29"/><stop offset="1" stop-color="#597c69"/></linearGradient>
  <linearGradient id="light" x2="0" y2="1"><stop stop-color="#fffae3" stop-opacity=".85"/><stop offset="1" stop-color="#fffae3" stop-opacity="0"/></linearGradient>
  <radialGradient id="glow"><stop stop-color="#fffce7" stop-opacity=".75"/><stop offset="1" stop-color="#fffce7" stop-opacity="0"/></radialGradient>
  <pattern id="tiles" width="34" height="34" patternUnits="userSpaceOnUse"><path d="M34 0H0V34" fill="none" stroke="#516f60" stroke-opacity=".18" stroke-width="1"/></pattern>
  <pattern id="smalltiles" width="19" height="19" patternUnits="userSpaceOnUse"><path d="M19 0H0V19" fill="none" stroke="#e3ead6" stroke-opacity=".3" stroke-width=".8"/></pattern>
  <filter id="grain"><feTurbulence type="fractalNoise" baseFrequency=".7" numOctaves="3" stitchTiles="stitch"/><feColorMatrix type="saturate" values="0"/><feComponentTransfer><feFuncA type="linear" slope=".11"/></feComponentTransfer><feBlend in="SourceGraphic" mode="soft-light"/></filter>
  <filter id="blur"><feGaussianBlur stdDeviation="22"/></filter>
  <clipPath id="pool"><path d="M385 583H1160L1105 1020H-160Z"/></clipPath>
</defs><g filter="url(#grain)"><path fill="#c4cbb9" d="M0 0h1200v1000H0z"/><path fill="url(#wall)" d="M0 0h620v1000H0z"/><path fill="url(#side)" d="M620 0h580v1000H620z"/><path fill="url(#tiles)" d="M0 0h1200v1000H0z"/><path d="M0 850L620 557L1200 838V1000H0Z" fill="#e2e3cd"/><path d="M720 710V315a95 95 0 0 1 190 0V710Z" fill="url(#dark)"/><path d="M862.5 710V322.6Q853 232 799.8 228" stroke="#9aaa90" stroke-width="6" fill="none" opacity=".5"/><path d="M6 940h270v25h-270Z" fill="#a7b5a0" stroke="#8fa18e" stroke-width=".6"/><path d="M6 940l20 -12.5h270l-20 12.5Z" fill="#eeeeda" stroke="#bac3ad" stroke-width=".6"/><path d="M26 915h270v25h-270Z" fill="#a7b5a0" stroke="#8fa18e" stroke-width=".6"/><path d="M26 915l20 -12.5h270l-20 12.5Z" fill="#eeeeda" stroke="#bac3ad" stroke-width=".6"/><path d="M46 890h270v25h-270Z" fill="#a7b5a0" stroke="#8fa18e" stroke-width=".6"/><path d="M46 890l20 -12.5h270l-20 12.5Z" fill="#eeeeda" stroke="#bac3ad" stroke-width=".6"/><path d="M66 865h270v25h-270Z" fill="#a7b5a0" stroke="#8fa18e" stroke-width=".6"/><path d="M66 865l20 -12.5h270l-20 12.5Z" fill="#eeeeda" stroke="#bac3ad" stroke-width=".6"/><path d="M86 840h270v25h-270Z" fill="#a7b5a0" stroke="#8fa18e" stroke-width=".6"/><path d="M86 840l20 -12.5h270l-20 12.5Z" fill="#eeeeda" stroke="#bac3ad" stroke-width=".6"/><path d="M106 815h270v25h-270Z" fill="#a7b5a0" stroke="#8fa18e" stroke-width=".6"/><path d="M106 815l20 -12.5h270l-20 12.5Z" fill="#eeeeda" stroke="#bac3ad" stroke-width=".6"/><path d="M126 790h270v25h-270Z" fill="#a7b5a0" stroke="#8fa18e" stroke-width=".6"/><path d="M126 790l20 -12.5h270l-20 12.5Z" fill="#eeeeda" stroke="#bac3ad" stroke-width=".6"/><path d="M146 765h270v25h-270Z" fill="#a7b5a0" stroke="#8fa18e" stroke-width=".6"/><path d="M146 765l20 -12.5h270l-20 12.5Z" fill="#eeeeda" stroke="#bac3ad" stroke-width=".6"/><path d="M166 740h270v25h-270Z" fill="#a7b5a0" stroke="#8fa18e" stroke-width=".6"/><path d="M166 740l20 -12.5h270l-20 12.5Z" fill="#eeeeda" stroke="#bac3ad" stroke-width=".6"/><path d="M186 715h270v25h-270Z" fill="#a7b5a0" stroke="#8fa18e" stroke-width=".6"/><path d="M186 715l20 -12.5h270l-20 12.5Z" fill="#eeeeda" stroke="#bac3ad" stroke-width=".6"/><path d="M206 690h270v25h-270Z" fill="#a7b5a0" stroke="#8fa18e" stroke-width=".6"/><path d="M206 690l20 -12.5h270l-20 12.5Z" fill="#eeeeda" stroke="#bac3ad" stroke-width=".6"/><path d="M226 665h270v25h-270Z" fill="#a7b5a0" stroke="#8fa18e" stroke-width=".6"/><path d="M226 665l20 -12.5h270l-20 12.5Z" fill="#eeeeda" stroke="#bac3ad" stroke-width=".6"/><path d="M246 640h270v25h-270Z" fill="#a7b5a0" stroke="#8fa18e" stroke-width=".6"/><path d="M246 640l20 -12.5h270l-20 12.5Z" fill="#eeeeda" stroke="#bac3ad" stroke-width=".6"/><path d="M266 615h270v25h-270Z" fill="#a7b5a0" stroke="#8fa18e" stroke-width=".6"/><path d="M266 615l20 -12.5h270l-20 12.5Z" fill="#eeeeda" stroke="#bac3ad" stroke-width=".6"/><path d="M286 590h270v25h-270Z" fill="#a7b5a0" stroke="#8fa18e" stroke-width=".6"/><path d="M286 590l20 -12.5h270l-20 12.5Z" fill="#eeeeda" stroke="#bac3ad" stroke-width=".6"/><path d="M306 565h270v25h-270Z" fill="#a7b5a0" stroke="#8fa18e" stroke-width=".6"/><path d="M306 565l20 -12.5h270l-20 12.5Z" fill="#eeeeda" stroke="#bac3ad" stroke-width=".6"/><path d="M326 540h270v25h-270Z" fill="#a7b5a0" stroke="#8fa18e" stroke-width=".6"/><path d="M326 540l20 -12.5h270l-20 12.5Z" fill="#eeeeda" stroke="#bac3ad" stroke-width=".6"/><path d="M346 515h270v25h-270Z" fill="#a7b5a0" stroke="#8fa18e" stroke-width=".6"/><path d="M346 515l20 -12.5h270l-20 12.5Z" fill="#eeeeda" stroke="#bac3ad" stroke-width=".6"/><path d="M366 490h270v25h-270Z" fill="#a7b5a0" stroke="#8fa18e" stroke-width=".6"/><path d="M366 490l20 -12.5h270l-20 12.5Z" fill="#eeeeda" stroke="#bac3ad" stroke-width=".6"/><path d="M386 465h270v25h-270Z" fill="#a7b5a0" stroke="#8fa18e" stroke-width=".6"/><path d="M386 465l20 -12.5h270l-20 12.5Z" fill="#eeeeda" stroke="#bac3ad" stroke-width=".6"/><path d="M406 440h270v25h-270Z" fill="#a7b5a0" stroke="#8fa18e" stroke-width=".6"/><path d="M406 440l20 -12.5h270l-20 12.5Z" fill="#eeeeda" stroke="#bac3ad" stroke-width=".6"/><path d="M426 415h270v25h-270Z" fill="#a7b5a0" stroke="#8fa18e" stroke-width=".6"/><path d="M426 415l20 -12.5h270l-20 12.5Z" fill="#eeeeda" stroke="#bac3ad" stroke-width=".6"/><path d="M446 390h270v25h-270Z" fill="#a7b5a0" stroke="#8fa18e" stroke-width=".6"/><path d="M446 390l20 -12.5h270l-20 12.5Z" fill="#eeeeda" stroke="#bac3ad" stroke-width=".6"/><path d="M446 364h286v25H446Z" fill="#edecd6"/><g transform="translate(1160 160) rotate(180)"><path d="M0 0h205v25h-205Z" fill="#a7b5a0" stroke="#8fa18e" stroke-width=".6"/><path d="M0 0l20 -12.5h205l-20 12.5Z" fill="#eeeeda" stroke="#bac3ad" stroke-width=".6"/><path d="M20 -25h205v25h-205Z" fill="#a7b5a0" stroke="#8fa18e" stroke-width=".6"/><path d="M20 -25l20 -12.5h205l-20 12.5Z" fill="#eeeeda" stroke="#bac3ad" stroke-width=".6"/><path d="M40 -50h205v25h-205Z" fill="#a7b5a0" stroke="#8fa18e" stroke-width=".6"/><path d="M40 -50l20 -12.5h205l-20 12.5Z" fill="#eeeeda" stroke="#bac3ad" stroke-width=".6"/><path d="M60 -75h205v25h-205Z" fill="#a7b5a0" stroke="#8fa18e" stroke-width=".6"/><path d="M60 -75l20 -12.5h205l-20 12.5Z" fill="#eeeeda" stroke="#bac3ad" stroke-width=".6"/><path d="M80 -100h205v25h-205Z" fill="#a7b5a0" stroke="#8fa18e" stroke-width=".6"/><path d="M80 -100l20 -12.5h205l-20 12.5Z" fill="#eeeeda" stroke="#bac3ad" stroke-width=".6"/><path d="M100 -125h205v25h-205Z" fill="#a7b5a0" stroke="#8fa18e" stroke-width=".6"/><path d="M100 -125l20 -12.5h205l-20 12.5Z" fill="#eeeeda" stroke="#bac3ad" stroke-width=".6"/><path d="M120 -150h205v25h-205Z" fill="#a7b5a0" stroke="#8fa18e" stroke-width=".6"/><path d="M120 -150l20 -12.5h205l-20 12.5Z" fill="#eeeeda" stroke="#bac3ad" stroke-width=".6"/><path d="M140 -175h205v25h-205Z" fill="#a7b5a0" stroke="#8fa18e" stroke-width=".6"/><path d="M140 -175l20 -12.5h205l-20 12.5Z" fill="#eeeeda" stroke="#bac3ad" stroke-width=".6"/><path d="M160 -200h205v25h-205Z" fill="#a7b5a0" stroke="#8fa18e" stroke-width=".6"/><path d="M160 -200l20 -12.5h205l-20 12.5Z" fill="#eeeeda" stroke="#bac3ad" stroke-width=".6"/><path d="M180 -225h205v25h-205Z" fill="#a7b5a0" stroke="#8fa18e" stroke-width=".6"/><path d="M180 -225l20 -12.5h205l-20 12.5Z" fill="#eeeeda" stroke="#bac3ad" stroke-width=".6"/><path d="M200 -250h205v25h-205Z" fill="#a7b5a0" stroke="#8fa18e" stroke-width=".6"/><path d="M200 -250l20 -12.5h205l-20 12.5Z" fill="#eeeeda" stroke="#bac3ad" stroke-width=".6"/><path d="M220 -275h205v25h-205Z" fill="#a7b5a0" stroke="#8fa18e" stroke-width=".6"/><path d="M220 -275l20 -12.5h205l-20 12.5Z" fill="#eeeeda" stroke="#bac3ad" stroke-width=".6"/><path d="M240 -300h205v25h-205Z" fill="#a7b5a0" stroke="#8fa18e" stroke-width=".6"/><path d="M240 -300l20 -12.5h205l-20 12.5Z" fill="#eeeeda" stroke="#bac3ad" stroke-width=".6"/><path d="M260 -325h205v25h-205Z" fill="#a7b5a0" stroke="#8fa18e" stroke-width=".6"/><path d="M260 -325l20 -12.5h205l-20 12.5Z" fill="#eeeeda" stroke="#bac3ad" stroke-width=".6"/><path d="M280 -350h205v25h-205Z" fill="#a7b5a0" stroke="#8fa18e" stroke-width=".6"/><path d="M280 -350l20 -12.5h205l-20 12.5Z" fill="#eeeeda" stroke="#bac3ad" stroke-width=".6"/><path d="M300 -375h205v25h-205Z" fill="#a7b5a0" stroke="#8fa18e" stroke-width=".6"/><path d="M300 -375l20 -12.5h205l-20 12.5Z" fill="#eeeeda" stroke="#bac3ad" stroke-width=".6"/><path d="M320 -400h205v25h-205Z" fill="#a7b5a0" stroke="#8fa18e" stroke-width=".6"/><path d="M320 -400l20 -12.5h205l-20 12.5Z" fill="#eeeeda" stroke="#bac3ad" stroke-width=".6"/></g><path d="M0 100L620 380L920 0H1050L640 488L0 195Z" fill="#f0eed8"/><path d="M0 195L640 488V518L0 223Z" fill="#849b82"/><path d="M640 488L1050 0h30L640 518Z" fill="#6d886d"/><path d="M1040 0h160v1000h-50V186Z" fill="#9dad95"/><ellipse cx="628" cy="700" rx="200" ry="360" fill="url(#glow)" opacity=".3"/></g></svg>